<svg width="196" height="48" viewBox="0 0 196 48" fill="none" xmlns="http://www.w3.org/2000/svg">
<g clip-path="url(#clip0_74_57)">
<path d="M22 16H26V18H22V16ZM22 8H26V10H22V8ZM22 20H26V22H22V20Z" fill="white"/>
<path d="M42 24V18C35.9027 17.9981 29.9951 20.1196 25.292 24H22.708C18.0049 20.1196 12.0973 17.9981 6 18V24C5.46957 24 4.96086 24.2107 4.58579 24.5858C4.21071 24.9609 4 25.4696 4 26V30C4 30.5304 4.21071 31.0391 4.58579 31.4142C4.96086 31.7893 5.46957 32 6 32V40C12.6842 39.9933 19.1203 42.5319 24 47.1C28.8852 42.5406 35.3177 40.0033 42 40V32C42.5304 32 43.0391 31.7893 43.4142 31.4142C43.7893 31.0391 44 30.5304 44 30V26C44 25.4696 43.7893 24.9609 43.4142 24.5858C43.0391 24.2107 42.5304 24 42 24Z" fill="white"/>
<path d="M18 10C19.1046 10 20 9.10457 20 8C20 6.89543 19.1046 6 18 6C16.8954 6 16 6.89543 16 8C16 9.10457 16.8954 10 18 10Z" fill="white"/>
<path d="M30 10C31.1046 10 32 9.10457 32 8C32 6.89543 31.1046 6 30 6C28.8954 6 28 6.89543 28 8C28 9.10457 28.8954 10 30 10Z" fill="white"/>
<path d="M32 16H16C14.4092 15.9984 12.884 15.3658 11.7591 14.2409C10.6342 13.116 10.0016 11.5908 10 10V6C10.0016 4.40919 10.6342 2.88399 11.7591 1.75911C12.884 0.63424 14.4092 0.00158843 16 0L32 0C33.5908 0.00158843 35.116 0.63424 36.2409 1.75911C37.3658 2.88399 37.9984 4.40919 38 6V10C37.9984 11.5908 37.3658 13.116 36.2409 14.2409C35.116 15.3658 33.5908 15.9984 32 16ZM16 4C15.4696 4 14.9609 4.21071 14.5858 4.58579C14.2107 4.96086 14 5.46957 14 6V10C14 10.5304 14.2107 11.0391 14.5858 11.4142C14.9609 11.7893 15.4696 12 16 12H32C32.5304 12 33.0391 11.7893 33.4142 11.4142C33.7893 11.0391 34 10.5304 34 10V6C34 5.46957 33.7893 4.96086 33.4142 4.58579C33.0391 4.21071 32.5304 4 32 4H16Z" fill="white"/>
</g>
<path d="M69.84 23.6C69.84 21.952 70.208 20.48 70.944 19.184C71.696 17.872 72.712 16.856 73.992 16.136C75.288 15.4 76.736 15.032 78.336 15.032C80.208 15.032 81.848 15.512 83.256 16.472C84.664 17.432 85.648 18.76 86.208 20.456H82.344C81.96 19.656 81.416 19.056 80.712 18.656C80.024 18.256 79.224 18.056 78.312 18.056C77.336 18.056 76.464 18.288 75.696 18.752C74.944 19.2 74.352 19.84 73.92 20.672C73.504 21.504 73.296 22.48 73.296 23.6C73.296 24.704 73.504 25.68 73.92 26.528C74.352 27.36 74.944 28.008 75.696 28.472C76.464 28.92 77.336 29.144 78.312 29.144C79.224 29.144 80.024 28.944 80.712 28.544C81.416 28.128 81.96 27.52 82.344 26.72H86.208C85.648 28.432 84.664 29.768 83.256 30.728C81.864 31.672 80.224 32.144 78.336 32.144C76.736 32.144 75.288 31.784 73.992 31.064C72.712 30.328 71.696 29.312 70.944 28.016C70.208 26.72 69.84 25.248 69.84 23.6ZM94.9819 32.216C93.7019 32.216 92.5499 31.936 91.5259 31.376C90.5019 30.8 89.6939 29.992 89.1019 28.952C88.5259 27.912 88.2379 26.712 88.2379 25.352C88.2379 23.992 88.5339 22.792 89.1259 21.752C89.7339 20.712 90.5579 19.912 91.5979 19.352C92.6379 18.776 93.7979 18.488 95.0779 18.488C96.3579 18.488 97.5179 18.776 98.5579 19.352C99.5979 19.912 100.414 20.712 101.006 21.752C101.614 22.792 101.918 23.992 101.918 25.352C101.918 26.712 101.606 27.912 100.982 28.952C100.374 29.992 99.5419 30.8 98.4859 31.376C97.4459 31.936 96.2779 32.216 94.9819 32.216ZM94.9819 29.288C95.5899 29.288 96.1579 29.144 96.6859 28.856C97.2299 28.552 97.6619 28.104 97.9819 27.512C98.3019 26.92 98.4619 26.2 98.4619 25.352C98.4619 24.088 98.1259 23.12 97.4539 22.448C96.7979 21.76 95.9899 21.416 95.0299 21.416C94.0699 21.416 93.2619 21.76 92.6059 22.448C91.9659 23.12 91.6459 24.088 91.6459 25.352C91.6459 26.616 91.9579 27.592 92.5819 28.28C93.2219 28.952 94.0219 29.288 94.9819 29.288ZM103.519 25.304C103.519 23.96 103.783 22.768 104.311 21.728C104.855 20.688 105.591 19.888 106.519 19.328C107.447 18.768 108.479 18.488 109.615 18.488C110.479 18.488 111.303 18.68 112.087 19.064C112.871 19.432 113.495 19.928 113.959 20.552V14.24H117.367V32H113.959V30.032C113.543 30.688 112.959 31.216 112.207 31.616C111.455 32.016 110.583 32.216 109.591 32.216C108.471 32.216 107.447 31.928 106.519 31.352C105.591 30.776 104.855 29.968 104.311 28.928C103.783 27.872 103.519 26.664 103.519 25.304ZM113.983 25.352C113.983 24.536 113.823 23.84 113.503 23.264C113.183 22.672 112.751 22.224 112.207 21.92C111.663 21.6 111.079 21.44 110.455 21.44C109.831 21.44 109.255 21.592 108.727 21.896C108.199 22.2 107.767 22.648 107.431 23.24C107.111 23.816 106.951 24.504 106.951 25.304C106.951 26.104 107.111 26.808 107.431 27.416C107.767 28.008 108.199 28.464 108.727 28.784C109.271 29.104 109.847 29.264 110.455 29.264C111.079 29.264 111.663 29.112 112.207 28.808C112.751 28.488 113.183 28.04 113.503 27.464C113.823 26.872 113.983 26.168 113.983 25.352ZM133.008 25.064C133.008 25.544 132.976 25.976 132.912 26.36H123.192C123.272 27.32 123.608 28.072 124.2 28.616C124.792 29.16 125.52 29.432 126.384 29.432C127.632 29.432 128.52 28.896 129.048 27.824H132.672C132.288 29.104 131.552 30.16 130.464 30.992C129.376 31.808 128.04 32.216 126.456 32.216C125.176 32.216 124.024 31.936 123 31.376C121.992 30.8 121.2 29.992 120.624 28.952C120.064 27.912 119.784 26.712 119.784 25.352C119.784 23.976 120.064 22.768 120.624 21.728C121.184 20.688 121.968 19.888 122.976 19.328C123.984 18.768 125.144 18.488 126.456 18.488C127.72 18.488 128.848 18.76 129.84 19.304C130.848 19.848 131.624 20.624 132.168 21.632C132.728 22.624 133.008 23.768 133.008 25.064ZM129.528 24.104C129.512 23.24 129.2 22.552 128.592 22.04C127.984 21.512 127.24 21.248 126.36 21.248C125.528 21.248 124.824 21.504 124.248 22.016C123.688 22.512 123.344 23.208 123.216 24.104H129.528ZM146.861 15.248V17.96H142.397V32H139.037V17.96H134.573V15.248H146.861ZM152.672 20.768C153.104 20.064 153.664 19.512 154.352 19.112C155.056 18.712 155.856 18.512 156.752 18.512V22.04H155.864C154.808 22.04 154.008 22.288 153.464 22.784C152.936 23.28 152.672 24.144 152.672 25.376V32H149.312V18.704H152.672V20.768ZM160.719 17.12C160.127 17.12 159.631 16.936 159.231 16.568C158.847 16.184 158.655 15.712 158.655 15.152C158.655 14.592 158.847 14.128 159.231 13.76C159.631 13.376 160.127 13.184 160.719 13.184C161.311 13.184 161.799 13.376 162.183 13.76C162.583 14.128 162.783 14.592 162.783 15.152C162.783 15.712 162.583 16.184 162.183 16.568C161.799 16.936 161.311 17.12 160.719 17.12ZM162.375 18.704V32H159.015V18.704H162.375ZM169.055 20.648C169.487 20.008 170.079 19.488 170.831 19.088C171.599 18.688 172.471 18.488 173.447 18.488C174.583 18.488 175.607 18.768 176.519 19.328C177.447 19.888 178.175 20.688 178.703 21.728C179.247 22.752 179.519 23.944 179.519 25.304C179.519 26.664 179.247 27.872 178.703 28.928C178.175 29.968 177.447 30.776 176.519 31.352C175.607 31.928 174.583 32.216 173.447 32.216C172.455 32.216 171.583 32.024 170.831 31.64C170.095 31.24 169.503 30.728 169.055 30.104V32H165.695V14.24H169.055V20.648ZM176.087 25.304C176.087 24.504 175.919 23.816 175.583 23.24C175.263 22.648 174.831 22.2 174.287 21.896C173.759 21.592 173.183 21.44 172.559 21.44C171.951 21.44 171.375 21.6 170.831 21.92C170.303 22.224 169.871 22.672 169.535 23.264C169.215 23.856 169.055 24.552 169.055 25.352C169.055 26.152 169.215 26.848 169.535 27.44C169.871 28.032 170.303 28.488 170.831 28.808C171.375 29.112 171.951 29.264 172.559 29.264C173.183 29.264 173.759 29.104 174.287 28.784C174.831 28.464 175.263 28.008 175.583 27.416C175.919 26.824 176.087 26.12 176.087 25.304ZM194.321 25.064C194.321 25.544 194.289 25.976 194.225 26.36H184.505C184.585 27.32 184.921 28.072 185.513 28.616C186.105 29.16 186.833 29.432 187.697 29.432C188.945 29.432 189.833 28.896 190.361 27.824H193.985C193.601 29.104 192.865 30.16 191.777 30.992C190.689 31.808 189.353 32.216 187.769 32.216C186.489 32.216 185.337 31.936 184.313 31.376C183.305 30.8 182.513 29.992 181.937 28.952C181.377 27.912 181.097 26.712 181.097 25.352C181.097 23.976 181.377 22.768 181.937 21.728C182.497 20.688 183.281 19.888 184.289 19.328C185.297 18.768 186.457 18.488 187.769 18.488C189.033 18.488 190.161 18.76 191.153 19.304C192.161 19.848 192.937 20.624 193.481 21.632C194.041 22.624 194.321 23.768 194.321 25.064ZM190.841 24.104C190.825 23.24 190.513 22.552 189.905 22.04C189.297 21.512 188.553 21.248 187.673 21.248C186.841 21.248 186.137 21.504 185.561 22.016C185.001 22.512 184.657 23.208 184.529 24.104H190.841Z" fill="white"/>
<defs>
<clipPath id="clip0_74_57">
<rect width="48" height="48" fill="white"/>
</clipPath>
</defs>
</svg>
